<svg width="641" height="145" viewBox="0 0 641 145" fill="none" xmlns="http://www.w3.org/2000/svg">
<g clip-path="url(#clip0_2_554)">
<path d="M622.36 69.7608H602.487H582.616C578.551 69.7608 575.243 66.53 575.243 62.5586V55.8527C575.243 51.8829 578.551 48.6507 582.616 48.6507H632.548C635.66 48.6507 638.182 46.1875 638.182 43.1475C638.182 40.1077 635.66 37.6443 632.548 37.6443H582.616C572.338 37.6443 563.976 45.813 563.976 55.8527V62.5586C563.976 72.5995 572.338 80.7683 582.616 80.7683H602.487H622.36C626.425 80.7683 629.733 83.9992 629.733 87.9689V94.6751C629.733 98.6461 626.425 101.877 622.36 101.877H569.609C566.497 101.877 563.976 104.341 563.976 107.38C563.976 110.42 566.497 112.884 569.609 112.884H622.36C632.637 112.884 641 104.716 641 94.6751V87.9689C641 77.9289 632.637 69.7608 622.36 69.7608Z" fill="#121113"/>
<path d="M538.057 94.6751C538.057 98.6461 534.749 101.877 530.684 101.877H490.94C486.875 101.877 483.567 98.6461 483.567 94.6751V55.8529C483.567 51.8817 486.875 48.651 490.94 48.651H530.684C534.749 48.651 538.057 51.8817 538.057 55.8529V94.6751ZM530.684 37.6446H490.94C480.662 37.6446 472.3 45.8131 472.3 55.8529V94.6751C472.3 104.716 480.662 112.883 490.94 112.883H530.684C540.963 112.883 549.326 104.716 549.326 94.6751V55.8529C549.326 45.8131 540.963 37.6446 530.684 37.6446Z" fill="#121113"/>
<path d="M446.382 94.6751C446.382 98.6461 443.074 101.877 439.009 101.877H391.892V80.767H439.009C443.074 80.767 446.382 83.9978 446.382 87.9689V94.6751ZM446.382 55.8529V62.5588C446.382 66.5299 443.074 69.7608 439.009 69.7608H391.892V48.651H439.009C443.074 48.651 446.382 51.8817 446.382 55.8529ZM439.009 37.6446H386.258C385.286 37.6446 384.371 37.8848 383.573 38.3088C383.253 38.4784 382.952 38.6762 382.674 38.9009C382.396 39.1256 382.141 39.3743 381.911 39.6471C381.106 40.5982 380.625 41.8179 380.625 43.1478V107.38C380.625 109.47 381.817 111.288 383.573 112.221C384.371 112.643 385.286 112.883 386.258 112.883H439.009C449.288 112.883 457.65 104.716 457.65 94.6751V87.9689C457.65 83.0309 455.624 78.5472 452.344 75.2642C455.624 71.9813 457.65 67.4968 457.65 62.5588V55.8529C457.65 45.8131 449.288 37.6446 439.009 37.6446Z" fill="#121113"/>
<path d="M360.341 37.6439C357.229 37.6439 354.707 40.1087 354.707 43.1471V94.6745C354.707 98.6455 351.4 101.876 347.334 101.876H307.59C303.525 101.876 300.218 98.6455 300.218 94.6745V43.1471C300.218 40.1087 297.696 37.6439 294.583 37.6439C291.472 37.6439 288.949 40.1087 288.949 43.1471V94.6745C288.949 104.716 297.311 112.884 307.59 112.884H347.334C357.612 112.884 365.975 104.716 365.975 94.6745V43.1471C365.975 40.1087 363.453 37.6439 360.341 37.6439Z" fill="#121113"/>
<path d="M215.914 48.6514H268.665C271.777 48.6514 274.299 46.188 274.299 43.1482C274.299 40.1083 271.777 37.6435 268.665 37.6435H215.914C205.637 37.6435 197.274 45.8122 197.274 55.8534V94.6751C197.274 104.715 205.637 112.884 215.914 112.884H268.665C271.777 112.884 274.299 110.421 274.299 107.38C274.299 104.341 271.777 101.878 268.665 101.878H215.914C211.849 101.878 208.542 98.6468 208.542 94.6751V55.8534C208.542 51.8821 211.849 48.6514 215.914 48.6514Z" fill="#121113"/>
<path d="M11.2692 36.4423C11.2692 25.4655 20.4115 16.5352 31.6488 16.5352H111.136C122.374 16.5352 131.516 25.4655 131.516 36.4423V114.087C131.516 125.063 122.374 133.994 111.136 133.994H31.6488C20.4115 133.994 11.2692 125.063 11.2692 114.087V36.4423ZM31.6488 145H111.136C128.587 145 142.785 131.133 142.785 114.087V36.4423C142.785 19.3956 128.587 5.52731 111.136 5.52731H31.6488C14.1975 5.52731 0 19.3956 0 36.4423V114.087C0 131.133 14.1975 145 31.6488 145Z" fill="#121113"/>
</g>
<defs>
<clipPath id="clip0_2_554">
<rect width="641" height="145" fill="white"/>
</clipPath>
</defs>
</svg>
